<?xml version="1.0" encoding="UTF-8"?>
<svg class="act-icon" id="btnAbout" xmlns="http://www.w3.org/2000/svg" viewBox="0 0 40 40" fill="currentColor">
  <path d="M31.32,8.68c-2.9-2.89-6.9-4.68-11.32-4.68s-8.42,1.79-11.32,4.68c-2.89,2.9-4.68,6.9-4.68,11.32,0,8.84,7.16,16,16,16,4.42,0,8.42-1.79,11.32-4.68,2.89-2.9,4.68-6.9,4.68-11.32s-1.79-8.42-4.68-11.32ZM20.68,26.6c.16.15.43.23.82.23.31,0,.58-.06.83-.16-.07.87-.38,1.53-.93,1.99-.54.46-1.19.69-1.93.69-.83,0-1.51-.26-2.02-.78-.51-.52-.76-1.3-.76-2.34,0-.44.06-1,.2-1.69l1.77-8.35h3.75l-1.88,8.84c-.07.26-.1.54-.1.83,0,.35.08.6.25.74ZM22.7,14.19c-.4.4-.89.6-1.47.6s-1.05-.2-1.45-.6-.6-.89-.6-1.46.2-1.06.6-1.47c.4-.4.88-.61,1.45-.61s1.07.21,1.47.61.61.9.61,1.47-.2,1.06-.61,1.46Z"/>
</svg>