<?xml version="1.0" encoding="UTF-8"?>
<svg class="act-icon" id="btnContact" xmlns="http://www.w3.org/2000/svg" viewBox="0 0 40 40" fill="currentColor">
  <path d="M36,21V5c0-.55-.45-1-1-1H10c-.55,0-1,.45-1,1v6.57c0,.55.45,1,1,1h22v11.57l4,2.29-2.26-4.43h1.26c.55,0,1-.45,1-1ZM33,9H12c-.55,0-1-.45-1-1s.45-1,1-1h21c.55,0,1,.45,1,1s-.45,1-1,1Z"/>
  <path d="M30,13.57H5c-.55,0-1,.45-1,1v16c0,.55.45,1,1,1h1.26l-2.26,4.43,7.74-4.43h18.26c.55,0,1-.45,1-1V14.57c0-.55-.45-1-1-1ZM28,28.43H7c-.55,0-1-.45-1-1s.45-1,1-1h21c.55,0,1,.45,1,1s-.45,1-1,1ZM28,23.58H7c-.55,0-1-.44-1-1s.45-1,1-1h21c.55,0,1,.45,1,1s-.45,1-1,1ZM28,18.74H7c-.55,0-1-.45-1-1s.45-1,1-1h21c.55,0,1,.45,1,1s-.45,1-1,1Z"/>
</svg>