<?xml version="1.0" encoding="UTF-8"?>
<svg class="act-icon" id="btnSave" xmlns="http://www.w3.org/2000/svg" viewBox="0 0 40 40" fill="currentColor">
  <path d="M34.15,11.83l-8.3-6.72c-.89-.72-2-1.11-3.14-1.11h-.71v7c0,.55-.45,1-1,1h-10c-.55,0-1-.45-1-1v-7h-1c-2.76,0-5,2.24-5,5v22c0,2.76,2.24,5,5,5h22c2.76,0,5-2.24,5-5v-15.29c0-1.51-.68-2.94-1.85-3.88ZM30,30c0,.55-.45,1-1,1H11c-.55,0-1-.45-1-1v-8c0-.55.45-1,1-1h18c.55,0,1,.45,1,1v8Z"/>
  <path d="M27,24c0,.55-.45,1-1,1h-12c-.55,0-1-.45-1-1s.45-1,1-1h12c.55,0,1,.45,1,1Z"/>
  <path d="M27,28c0,.55-.45,1-1,1h-12c-.55,0-1-.45-1-1s.45-1,1-1h12c.55,0,1,.45,1,1Z"/>
</svg>