<?xml version="1.0" encoding="UTF-8"?>
<svg id="btn_Calendar" fill="currentColor" xmlns="http://www.w3.org/2000/svg" viewBox="0 0 40 40">
  <path d="M18.5,8.7c-.1-.19-.23-.34-.4-.45-.17-.1-.36-.16-.58-.16s-.4.06-.57.16c-.16.11-.29.26-.39.45-.1.18-.14.39-.14.63s.04.46.14.65.23.34.39.44c.17.11.36.16.57.16s.41-.05.58-.16c.17-.1.3-.25.4-.44.09-.19.14-.4.14-.65s-.05-.45-.14-.63ZM18.5,8.7c-.1-.19-.23-.34-.4-.45-.17-.1-.36-.16-.58-.16s-.4.06-.57.16c-.16.11-.29.26-.39.45-.1.18-.14.39-.14.63s.04.46.14.65.23.34.39.44c.17.11.36.16.57.16s.41-.05.58-.16c.17-.1.3-.25.4-.44.09-.19.14-.4.14-.65s-.05-.45-.14-.63ZM18.5,8.7c-.1-.19-.23-.34-.4-.45-.17-.1-.36-.16-.58-.16s-.4.06-.57.16c-.16.11-.29.26-.39.45-.1.18-.14.39-.14.63s.04.46.14.65.23.34.39.44c.17.11.36.16.57.16s.41-.05.58-.16c.17-.1.3-.25.4-.44.09-.19.14-.4.14-.65s-.05-.45-.14-.63ZM18.5,8.7c-.1-.19-.23-.34-.4-.45-.17-.1-.36-.16-.58-.16s-.4.06-.57.16c-.16.11-.29.26-.39.45-.1.18-.14.39-.14.63s.04.46.14.65.23.34.39.44c.17.11.36.16.57.16s.41-.05.58-.16c.17-.1.3-.25.4-.44.09-.19.14-.4.14-.65s-.05-.45-.14-.63ZM18.5,8.7c-.1-.19-.23-.34-.4-.45-.17-.1-.36-.16-.58-.16s-.4.06-.57.16c-.16.11-.29.26-.39.45-.1.18-.14.39-.14.63s.04.46.14.65.23.34.39.44c.17.11.36.16.57.16s.41-.05.58-.16c.17-.1.3-.25.4-.44.09-.19.14-.4.14-.65s-.05-.45-.14-.63ZM18.5,8.7c-.1-.19-.23-.34-.4-.45-.17-.1-.36-.16-.58-.16s-.4.06-.57.16c-.16.11-.29.26-.39.45-.1.18-.14.39-.14.63s.04.46.14.65.23.34.39.44c.17.11.36.16.57.16s.41-.05.58-.16c.17-.1.3-.25.4-.44.09-.19.14-.4.14-.65s-.05-.45-.14-.63ZM28,4H12c-4.42,0-8,3.58-8,8v16c0,4.42,3.58,8,8,8h16c4.42,0,8-3.58,8-8V12c0-4.42-3.58-8-8-8ZM26.76,6h.72v2.08c.04-.07.09-.13.15-.19.13-.13.3-.25.48-.33.19-.09.38-.13.58-.13.28,0,.51.05.7.16.18.11.32.28.42.5.09.23.14.51.14.85v2.24h-.72v-2.19c0-.21-.03-.38-.09-.52-.05-.14-.14-.24-.26-.3-.11-.07-.26-.09-.43-.08-.14,0-.27.02-.39.06-.11.05-.21.11-.3.19-.09.08-.15.17-.2.28-.05.1-.08.21-.08.33v2.23h-.72v-5.18ZM23.03,8.37c.15-.29.37-.52.64-.69.26-.17.57-.25.91-.25s.62.07.89.2c.27.13.47.31.61.54l-.4.49c-.07-.11-.17-.2-.28-.29-.12-.09-.24-.16-.37-.21-.13-.05-.26-.08-.38-.08-.23,0-.42.05-.6.16-.17.11-.31.26-.42.46-.1.19-.15.4-.15.64s.05.45.16.64.25.34.43.45.37.17.59.17c.12,0,.24-.02.36-.06.12-.05.24-.11.35-.19.11-.09.22-.19.31-.31l.4.49c-.15.21-.36.38-.64.52-.27.13-.56.2-.86.2-.34,0-.65-.08-.91-.25-.27-.17-.49-.4-.64-.69-.16-.29-.24-.61-.24-.97s.08-.68.24-.97ZM20.35,7.51h.73v.69c.05-.11.11-.21.19-.3.12-.15.27-.26.43-.35.16-.08.33-.12.5-.12.08,0,.15.01.22.02.08,0,.13.03.18.05l-.19.78c-.06-.02-.12-.04-.19-.06-.07-.01-.13-.02-.2-.02-.12,0-.24.02-.36.07-.11.05-.21.12-.3.2-.09.09-.15.19-.21.31-.05.11-.07.23-.07.37v2.03h-.73v-3.67ZM15.91,8.35c.15-.29.36-.51.61-.68.26-.16.55-.24.88-.24.19,0,.36.03.52.08.16.06.3.14.42.24.11.09.19.19.27.31v-.55h.73v3.67h-.73v-.56c-.09.12-.2.23-.33.32-.13.1-.28.17-.44.23-.16.05-.33.08-.51.08-.3,0-.58-.08-.83-.25-.25-.17-.45-.4-.59-.69-.15-.29-.23-.61-.23-.98s.08-.69.23-.98ZM10.05,6.28h.74l1.61,2.61,1.63-2.61h.7v4.9h-.76v-2.01c0-.42.01-.8.03-1.13.01-.17.03-.33.05-.49l-1.44,2.22h-.46l-1.41-2.21c.02.15.03.29.04.44.02.33.03.72.03,1.17v2.01h-.76v-4.9ZM34,28c0,3.31-2.69,6-6,6H12c-3.31,0-6-2.69-6-6V12h28v16ZM16.95,10.42c.17.11.36.16.57.16s.41-.05.58-.16c.17-.1.3-.25.4-.44.09-.19.14-.4.14-.65s-.05-.45-.14-.63c-.1-.19-.23-.34-.4-.45-.17-.1-.36-.16-.58-.16s-.4.06-.57.16c-.16.11-.29.26-.39.45-.1.18-.14.39-.14.63s.04.46.14.65.23.34.39.44ZM18.5,8.7c-.1-.19-.23-.34-.4-.45-.17-.1-.36-.16-.58-.16s-.4.06-.57.16c-.16.11-.29.26-.39.45-.1.18-.14.39-.14.63s.04.46.14.65.23.34.39.44c.17.11.36.16.57.16s.41-.05.58-.16c.17-.1.3-.25.4-.44.09-.19.14-.4.14-.65s-.05-.45-.14-.63ZM18.5,8.7c-.1-.19-.23-.34-.4-.45-.17-.1-.36-.16-.58-.16s-.4.06-.57.16c-.16.11-.29.26-.39.45-.1.18-.14.39-.14.63s.04.46.14.65.23.34.39.44c.17.11.36.16.57.16s.41-.05.58-.16c.17-.1.3-.25.4-.44.09-.19.14-.4.14-.65s-.05-.45-.14-.63ZM18.5,8.7c-.1-.19-.23-.34-.4-.45-.17-.1-.36-.16-.58-.16s-.4.06-.57.16c-.16.11-.29.26-.39.45-.1.18-.14.39-.14.63s.04.46.14.65.23.34.39.44c.17.11.36.16.57.16s.41-.05.58-.16c.17-.1.3-.25.4-.44.09-.19.14-.4.14-.65s-.05-.45-.14-.63ZM18.5,8.7c-.1-.19-.23-.34-.4-.45-.17-.1-.36-.16-.58-.16s-.4.06-.57.16c-.16.11-.29.26-.39.45-.1.18-.14.39-.14.63s.04.46.14.65.23.34.39.44c.17.11.36.16.57.16s.41-.05.58-.16c.17-.1.3-.25.4-.44.09-.19.14-.4.14-.65s-.05-.45-.14-.63ZM18.5,8.7c-.1-.19-.23-.34-.4-.45-.17-.1-.36-.16-.58-.16s-.4.06-.57.16c-.16.11-.29.26-.39.45-.1.18-.14.39-.14.63s.04.46.14.65.23.34.39.44c.17.11.36.16.57.16s.41-.05.58-.16c.17-.1.3-.25.4-.44.09-.19.14-.4.14-.65s-.05-.45-.14-.63ZM18.5,8.7c-.1-.19-.23-.34-.4-.45-.17-.1-.36-.16-.58-.16s-.4.06-.57.16c-.16.11-.29.26-.39.45-.1.18-.14.39-.14.63s.04.46.14.65.23.34.39.44c.17.11.36.16.57.16s.41-.05.58-.16c.17-.1.3-.25.4-.44.09-.19.14-.4.14-.65s-.05-.45-.14-.63Z"/>
  <g>
    <path d="M12.36,27.02l-.46-1.15,2.86-3.12c.16-.18.33-.38.52-.6.19-.22.37-.46.55-.69.18-.24.32-.47.43-.69.11-.22.16-.43.16-.62s-.04-.35-.13-.49c-.08-.14-.21-.25-.36-.33-.16-.08-.36-.12-.6-.12-.21,0-.42.05-.62.16s-.38.27-.55.5c-.17.22-.33.5-.48.83l-1.76-.95c.2-.54.47-1.02.83-1.44.36-.42.78-.74,1.27-.97.49-.23,1-.34,1.55-.34.58,0,1.1.13,1.57.37.47.24.84.57,1.11.99.28.42.41.92.41,1.49,0,.2-.02.4-.07.62-.05.21-.12.44-.21.66-.09.23-.22.47-.37.73-.15.26-.34.53-.55.81s-.47.58-.76.9l-2.23,2.42-.28-1.06h4.9v2.1h-6.72Z"/>
    <path d="M23.93,27.16c-.88,0-1.63-.2-2.25-.6-.62-.4-1.09-.98-1.42-1.73-.33-.75-.49-1.65-.49-2.71s.16-1.96.49-2.71c.33-.75.8-1.33,1.42-1.73.62-.4,1.37-.6,2.25-.6s1.63.2,2.25.6c.63.4,1.1.98,1.43,1.73.33.75.49,1.65.49,2.71s-.16,1.96-.49,2.71c-.33.75-.8,1.33-1.43,1.73-.62.4-1.38.6-2.25.6ZM23.93,25.15c.61,0,1.08-.26,1.41-.78.33-.52.5-1.27.5-2.24s-.17-1.77-.5-2.3c-.33-.54-.8-.8-1.41-.8s-1.08.27-1.41.8c-.33.54-.5,1.3-.5,2.3s.17,1.72.5,2.24c.33.52.8.78,1.41.78Z"/>
  </g>
</svg>