<?xml version="1.0" encoding="UTF-8"?>
<svg id="btn_music" data-name="btn_music" fill="currentColor" xmlns="http://www.w3.org/2000/svg" viewBox="0 0 40 40">
  <path d="M22.54,11.95c-.01,1.04.02,2.08,0,3.12-.06,4.82.03,9.75-.16,14.56-.03.7.03,1.85-.3,2.47-.12.23-.9,1.01-1.14,1.22-2.28,2.08-5.89,3.49-8.88,2.17-2.29-1.02-3.12-3.46-1.82-5.65,1.58-2.65,4.99-4.35,8.06-3.84,1.11.19,2.14.66,3.19,1.02.01-.65-.02-1.31,0-1.97.11-5,.12-10.03.16-15.03.01-1.63-.15-3.61,0-5.19.06-.61.42-1.18.99-.62.22,1.16.29,2.37.77,3.47.69,1.57,2.12,2.65,3.25,3.88,2.34,2.57,4.2,6.53,3.62,10.07-.33,2.02-1.39,3.91-2.31,5.7-.36.32-.86.08-.79-.42.05-.33.32-.89.42-1.26.63-2.17,1.01-4.78.64-7.03-.5-3.04-3.01-5.42-5.69-6.69Z"/>
</svg>