<?xml version="1.0" encoding="UTF-8"?>
<svg class="act-icon" id="btnUsage" xmlns="http://www.w3.org/2000/svg" viewBox="0 0 40 40" fill="currentColor">
  <path d="M31.32,8.68c-2.9-2.89-6.9-4.68-11.32-4.68s-8.42,1.79-11.32,4.68c-2.89,2.9-4.68,6.9-4.68,11.32,0,8.84,7.16,16,16,16,4.42,0,8.42-1.79,11.32-4.68,2.89-2.9,4.68-6.9,4.68-11.32s-1.79-8.42-4.68-11.32ZM21.36,29.29c-.45.47-1.02.71-1.7.71s-1.28-.24-1.73-.71c-.45-.47-.68-1.05-.68-1.73s.23-1.29.68-1.75c.45-.45,1.03-.68,1.73-.68s1.25.23,1.7.68c.46.46.68,1.04.68,1.75s-.22,1.26-.68,1.73ZM25.04,16.78c-.3.56-.68,1.08-1.12,1.56-.45.48-.89.96-1.31,1.43-.43.48-.78.99-1.04,1.55s-.35,1.2-.26,1.93h-3.35c-.13-.83-.08-1.57.14-2.21.22-.64.53-1.22.93-1.74.4-.51.81-1,1.23-1.46.42-.45.78-.9,1.08-1.34.29-.44.44-.91.44-1.4,0-.42-.09-.79-.27-1.1-.19-.32-.44-.56-.76-.73-.33-.16-.72-.25-1.19-.25-.58,0-1.11.13-1.58.39-.47.27-.91.62-1.33,1.06l-2.15-1.91c.68-.76,1.49-1.38,2.42-1.85.94-.47,1.97-.71,3.11-.71,1.04,0,1.98.18,2.81.53.83.36,1.48.9,1.95,1.61.47.72.71,1.63.71,2.71,0,.73-.15,1.37-.46,1.93Z"/>
</svg>