<?xml version="1.0" encoding="UTF-8"?>
<svg id="btn_myDesk" data-name="btn_myDesk" fill="currentColor" xmlns="http://www.w3.org/2000/svg" viewBox="0 0 40 40">
  <path d="M4,6v17c0,1.1.9,2,2,2h28c1.1,0,2-.9,2-2V6c0-1.1-.9-2-2-2H6c-1.1,0-2,.9-2,2ZM34,23H6V6h28v17Z"/>
  <rect x="10" y="34" width="20" height="2" rx="1" ry="1"/>
  <polygon points="17 25 23 25 24.5 34 15.5 34 17 25"/>
  <g>
    <path d="M12.02,14.1v-3.98l.26.59-1.05.5-.2-1.06,1.39-.68h.77v4.63h-1.17ZM11.13,14.45v-1.05h2.98v1.05h-2.98Z"/>
    <path d="M15.95,14.1v-3.98l.26.59-1.05.5-.2-1.06,1.39-.68h.77v4.63h-1.17ZM15.05,14.45v-1.05h2.98v1.05h-2.98Z"/>
    <path d="M19.94,11.91c-.19,0-.34-.05-.44-.16-.1-.11-.16-.26-.16-.46,0-.19.06-.34.17-.45s.26-.18.43-.18c.19,0,.34.06.45.16.11.11.16.27.16.47,0,.18-.06.33-.17.45s-.26.17-.44.17ZM19.94,14.52c-.19,0-.34-.05-.44-.16-.1-.11-.16-.26-.16-.46,0-.19.06-.34.17-.46s.26-.17.43-.17c.19,0,.34.05.45.16.11.11.16.27.16.47,0,.18-.06.33-.17.45-.11.12-.26.18-.44.18Z"/>
    <path d="M22.96,14.1v-3.98l.26.59-1.05.5-.2-1.06,1.39-.68h.77v4.63h-1.17ZM22.06,14.45v-1.05h2.98v1.05h-2.98Z"/>
    <path d="M26.88,14.1v-3.98l.26.59-1.05.5-.2-1.06,1.39-.68h.77v4.63h-1.17ZM25.99,14.45v-1.05h2.98v1.05h-2.98Z"/>
  </g>
</svg>